{"accessors" : [{"bufferView" : 0, "byteOffset" : 0, "componentType" : 5123, "count" : 1872, "type" : "SCALAR", "max" : [314], "min" : [0]}, {"bufferView" : 1, "byteOffset" : 0, "componentType" : 5126, "count" : 315, "type" : "VEC3", "max" : [0.11056554317474365, 0.7469756603240967, 0.4230639636516571], "min" : [-0.11056554317474365, -0.07747459411621094, 0.08858977258205414], "name" : "POSITION"}, {"bufferView" : 0, "byteOffset" : 3744, "componentType" : 5123, "count" : 1194, "type" : "SCALAR", "max" : [197], "min" : [0]}, {"bufferView" : 2, "byteOffset" : 0, "componentType" : 5126, "count" : 198, "type" : "VEC3", "max" : [0.04454547166824341, 0.1651914119720459, -0.17257562279701233], "min" : [-0.044545531272888184, -0.18254661560058594, -0.7732620239257812], "name" : "POSITION"}, {"bufferView" : 0, "byteOffset" : 6132, "componentType" : 5123, "count" : 3828, "type" : "SCALAR", "max" : [650], "min" : [0]}, {"bufferView" : 3, "byteOffset" : 0, "componentType" : 5126, "count" : 651, "type" : "VEC3", "max" : [0.09358656406402588, 0.7378921508789062, 0.17285481095314026], "min" : [-0.09358644485473633, -1.4440412521362305, -0.16349107027053833], "name" : "POSITION"}, {"bufferView" : 0, "byteOffset" : 13788, "componentType" : 5123, "count" : 9900, "type" : "SCALAR", "max" : [1583], "min" : [0]}, {"bufferView" : 4, "byteOffset" : 0, "componentType" : 5126, "count" : 1584, "type" : "VEC3", "max" : [0.12001574039459229, 1.3117470741271973, 0.16141557693481445], "min" : [-0.12001562118530273, -0.987004280090332, -0.5466943383216858], "name" : "POSITION"}], "asset" : {"generator" : "Aspose.3D 24.2.0", "version" : "2.0"}, "buffers" : [{"uri" : "buffer.bin", "byteLength" : 66584}], "bufferViews" : [{"buffer" : 0, "byteOffset" : 0, "byteLength" : 33588, "target" : 34963}, {"buffer" : 0, "byteOffset" : 33592, "byteLength" : 3780, "byteStride" : 12, "target" : 34962}, {"buffer" : 0, "byteOffset" : 37376, "byteLength" : 2376, "byteStride" : 12, "target" : 34962}, {"buffer" : 0, "byteOffset" : 39756, "byteLength" : 7812, "byteStride" : 12, "target" : 34962}, {"buffer" : 0, "byteOffset" : 47572, "byteLength" : 19008, "byteStride" : 12, "target" : 34962}], "materials" : [{"name" : "M4A1_materia.001", "pbrMetallicRoughness" : {"baseColorFactor" : [0.027450980392156862, 0.027450980392156862, 0.027450980392156862, 1], "metallicFactor" : 1, "roughnessFactor" : 1}, "emissiveFactor" : [0, 0, 0], "alphaMode" : "OPAQUE", "doubleSided" : false}, {"name" : "M4A1_materia.001", "pbrMetallicRoughness" : {"baseColorFactor" : [0.027450980392156862, 0.027450980392156862, 0.027450980392156862, 1], "metallicFactor" : 1, "roughnessFactor" : 1}, "emissiveFactor" : [0, 0, 0], "alphaMode" : "OPAQUE", "doubleSided" : false}, {"name" : "M4A1_materia.000", "pbrMetallicRoughness" : {"baseColorFactor" : [0.12156862745098039, 0.12156862745098039, 0.12156862745098039, 1], "metallicFactor" : 1, "roughnessFactor" : 1}, "emissiveFactor" : [0, 0, 0], "alphaMode" : "OPAQUE", "doubleSided" : false}, {"name" : "M4A1_materia.001", "pbrMetallicRoughness" : {"baseColorFactor" : [0.027450980392156862, 0.027450980392156862, 0.027450980392156862, 1], "metallicFactor" : 1, "roughnessFactor" : 1}, "emissiveFactor" : [0, 0, 0], "alphaMode" : "OPAQUE", "doubleSided" : false}], "meshes" : [{"primitives" : [{"attributes" : {"POSITION" : 1}, "indices" : 0, "material" : 0, "mode" : 4}], "name" : "M4A1_malha_m"}, {"primitives" : [{"attributes" : {"POSITION" : 3}, "indices" : 2, "material" : 1, "mode" : 4}], "name" : "M4A1_malha_p"}, {"primitives" : [{"attributes" : {"POSITION" : 5}, "indices" : 4, "material" : 2, "mode" : 4}, {"attributes" : {"POSITION" : 7}, "indices" : 6, "material" : 3, "mode" : 4}], "name" : "M4A1_malha_c"}], "nodes" : [{"mesh" : 0, "name" : "M4A1_malha_m"}, {"mesh" : 1, "name" : "M4A1_malha_p"}, {"mesh" : 2, "name" : "M4A1_malha_c"}], "scene" : 0, "scenes" : [{"nodes" : [0, 1, 2]}]}