{"accessors" : [{"bufferView" : 0, "byteOffset" : 0, "componentType" : 5123, "count" : 57462, "type" : "SCALAR", "max" : [9822], "min" : [0]}, {"bufferView" : 1, "byteOffset" : 0, "componentType" : 5126, "count" : 9823, "type" : "VEC3", "max" : [2.3713316917419434, 1.211381435394287, 9.208303451538086], "min" : [-2.3713302612304688, -1.3413671255111694, -8.23165512084961], "name" : "POSITION"}], "asset" : {"generator" : "Aspose.3D 24.2.0", "version" : "2.0"}, "buffers" : [{"uri" : "buffer.bin", "byteLength" : 232808}], "bufferViews" : [{"buffer" : 0, "byteOffset" : 0, "byteLength" : 114924, "target" : 34963}, {"buffer" : 0, "byteOffset" : 114928, "byteLength" : 117876, "byteStride" : 12, "target" : 34962}], "materials" : [{"name" : "Material", "pbrMetallicRoughness" : {"baseColorFactor" : [0.8, 0.8, 0.8, 1], "metallicFactor" : 1, "roughnessFactor" : 1}, "emissiveFactor" : [0, 0, 0], "alphaMode" : "OPAQUE", "doubleSided" : false}], "meshes" : [{"primitives" : [{"attributes" : {"POSITION" : 1}, "indices" : 0, "material" : 0, "mode" : 4}], "name" : "Larry"}], "nodes" : [{"mesh" : 0, "name" : "Larry"}], "scene" : 0, "scenes" : [{"nodes" : [0]}]}